<?xml version="1.0" standalone="no"?><!DOCTYPE svg PUBLIC "-//W3C//DTD SVG 1.1//EN" "http://www.w3.org/Graphics/SVG/1.1/DTD/svg11.dtd"><svg t="1540208949234" class="icon" style="" viewBox="0 0 1024 1024" version="1.1" xmlns="http://www.w3.org/2000/svg" p-id="515" xmlns:xlink="http://www.w3.org/1999/xlink" width="200" height="200"><defs><style type="text/css"></style></defs><path d="M925.27 269.25V758c0 112.46-185.35 203.64-414 203.64s-414-91.18-414-203.64V269.25c0-112.46 185.34-203.63 414-203.63s414 91.17 414 203.63zM842.47 758V269.25c0-43.07-125.73-122.18-331.18-122.18s-331.18 79.11-331.18 122.18V758c0 43.07 125.73 122.18 331.18 122.18S842.47 801.05 842.47 758z" fill="#515151" p-id="516"></path><path d="M925.27 269.25c0 112.47-185.35 203.64-414 203.64s-414-91.17-414-203.64 185.34-203.63 414-203.63 414 91.17 414 203.63z m-82.8 0c0-43.07-125.73-122.18-331.18-122.18s-331.18 79.11-331.18 122.18 125.73 122.18 331.18 122.18 331.18-79.1 331.18-122.18z" fill="#515151" p-id="517"></path><path d="M511.29 554.34c-205.45 0-331.18-79.1-331.18-122.18H97.32c0 112.47 185.34 203.64 414 203.64s414-91.17 414-203.64h-82.8c-0.05 43.08-125.78 122.18-331.23 122.18z" fill="#515151" p-id="518"></path><path d="M511.29 717.25c-205.45 0-331.18-79.11-331.18-122.18H97.32c0 112.47 185.34 203.64 414 203.64s414-91.17 414-203.64h-82.8c-0.05 43.07-125.78 122.18-331.23 122.18z" fill="#515151" p-id="519"></path></svg>